<svg xmlns="http://www.w3.org/2000/svg" width="12" height="9" viewBox="0 0 12 9">  <g fill="#A8ADB4">    <path d="M11.7857907,4.28778178 C11.8959081,4.11713727 11.8911204,3.88419398 11.7738214,3.71896676 C9.99997382,1.25139304 8.08488866,0 6.07883696,0 C2.67716695,0 0.314430642,3.58624326 0.216282528,3.73792726 C0.106165131,3.90857177 0.110952844,4.14151506 0.22825181,4.30674228 C1.99970558,6.77702464 3.91479074,8.02841768 5.92084244,8.02841768 C9.32251245,8.02841768 11.6852488,4.44217442 11.7857907,4.28778178 Z M5.89323015,7.06025184 C4.23007806,7.06025184 2.60981528,6.02110168 1.07056564,3.97527481 C1.6733987,3.16614486 3.58912117,0.89571001 6.05049095,0.89571001 C7.71364304,0.89571001 9.33390582,1.93486017 10.8731555,3.98068705 C10.2703224,4.78981699 8.35459994,7.06025184 5.89323015,7.06025184 Z"/>    <path d="M5.9747119,2.1133512 C4.93407857,2.1133512 4.086396,2.96990844 4.086396,4.02143651 C4.086396,5.07296459 4.93407857,5.92952183 5.9747119,5.92952183 C7.01534523,5.92952183 7.8630278,5.07296459 7.8630278,4.02143651 C7.8630278,2.96990844 7.01534523,2.1133512 5.9747119,2.1133512 Z M5.9747119,5.07803713 C5.39841433,5.07803713 4.92905858,4.60376753 4.92905858,4.02143651 C4.92905858,3.43910549 5.39841433,2.9648359 5.9747119,2.9648359 C6.55100947,2.9648359 7.02036522,3.43910549 7.02036522,4.02143651 C7.02036522,4.60376753 6.55100947,5.07803713 5.9747119,5.07803713 Z"/>  </g></svg>